<svg xmlns="http://www.w3.org/2000/svg" width="2277" height="2277" viewBox="0 0 2277 2277" fill="none"><g clip-path="url(#clip0_766_5833)"><path d="M2277 0H0V2277H2277V0Z" fill="#EDCEAB"></path><path d="M759 207L724.5 138L690 207H759Z" fill="#503C3B"></path><path d="M1035 207L966 172.5L1035 138V207Z" fill="#503C3B"></path><path d="M1104 138H1035V207H1104V138Z" fill="#503C3B"></path><path d="M1173 138H1104V207H1173V138Z" fill="#503C3B"></path><path d="M1173 207L1242 172.5L1173 138V207Z" fill="#503C3B"></path><path d="M1380 161.719V138H1334.72C1328.16 138 1322.57 140.314 1317.94 144.941C1313.31 149.568 1311 155.16 1311 161.719V207H1380V161.719Z" fill="#503C3B"></path><path d="M1449 138H1380V207H1449V138Z" fill="#503C3B"></path><path d="M1518 138H1449V207H1518V138Z" fill="#503C3B"></path><path d="M1587 161.719C1587 155.16 1584.69 149.567 1580.06 144.941C1575.43 140.314 1569.84 138 1563.28 138H1518V207H1587V161.719Z" fill="#503C3B"></path><path d="M690 206.999L724.5 275.999L759 206.999H690Z" fill="#503C3B"></path><path d="M897 276L828 241.5L897 207V276Z" fill="#503C3B"></path><path d="M966 230.719C966 224.16 963.686 218.567 959.059 213.941C954.433 209.314 948.84 207 942.281 207H897V276H966V230.719Z" fill="#503C3B"></path><path d="M1035 206.999L1069.5 275.999L1104 206.999H1035Z" fill="#503C3B"></path><path d="M1311 230.719V207H1265.72C1259.16 207 1253.57 209.314 1248.94 213.941C1244.31 218.568 1242 224.16 1242 230.719V276H1311V230.719Z" fill="#503C3B"></path><path d="M1380 207H1311V276H1380V207Z" fill="#503C3B"></path><path d="M1449 207H1380V276H1449V207Z" fill="#503C3B"></path><path d="M1587 207H1518V276H1587V207Z" fill="#503C3B"></path><path d="M828 310.499H827.999L793.5 276L759.001 310.499H759V310.5H759.001L793.5 344.999L827.999 310.5H828H827.999L828 310.499Z" fill="#503C3B"></path><path d="M966 276H897V321.281C897 327.84 899.314 333.433 903.941 338.059C908.568 342.686 914.16 345 920.719 345H966V276Z" fill="#503C3B"></path><path d="M1035 299.719C1035 293.16 1032.69 287.567 1028.06 282.941C1023.43 278.314 1017.84 276 1011.28 276H966V345H1035V299.719Z" fill="#503C3B"></path><path d="M1242 275.999L1276.5 344.999L1311 275.999H1242Z" fill="#503C3B"></path><path d="M1380 275.999L1414.5 344.999L1449 275.999H1380Z" fill="#503C3B"></path><path d="M1587 276H1518V345H1587V276Z" fill="#503C3B"></path><path d="M759 379.499H758.999L724.5 345L690.001 379.499H690V379.5H690.001L724.5 413.999L758.999 379.5H759H758.999L759 379.499Z" fill="#503C3B"></path><path d="M897 414L862.5 345L828 414H897Z" fill="#503C3B"></path><path d="M966 344.999L1000.5 413.999L1035 344.999H966Z" fill="#503C3B"></path><path d="M1173 368.719V345H1127.72C1121.16 345 1115.57 347.314 1110.94 351.941C1106.31 356.568 1104 362.16 1104 368.719V414H1173V368.719Z" fill="#503C3B"></path><path d="M1173 414L1242 379.5L1173 345V414Z" fill="#503C3B"></path><path d="M1380 379.499H1380L1345.5 345L1311 379.499H1311V379.5H1311L1345.5 413.999L1380 379.5H1380H1380L1380 379.499Z" fill="#503C3B"></path><path d="M1518 344.999L1552.5 413.999L1587 344.999H1518Z" fill="#503C3B"></path><path d="M828 437.719V414H782.719C776.16 414 770.567 416.314 765.941 420.941C761.314 425.568 759 431.16 759 437.719V483H828V437.719Z" fill="#503C3B"></path><path d="M897 414H828V483H897V414Z" fill="#503C3B"></path><path d="M966 437.719C966 431.16 963.686 425.567 959.059 420.941C954.433 416.314 948.84 414 942.281 414H897V483H966V437.719Z" fill="#503C3B"></path><path d="M1104 413.999L1138.5 482.999L1173 413.999H1104Z" fill="#503C3B"></path><path d="M1311 483L1276.5 414L1242 483H1311Z" fill="#503C3B"></path><path d="M1518 483L1483.5 414L1449 483H1518Z" fill="#503C3B"></path><path d="M759 482.999L793.5 551.999L828 482.999H759Z" fill="#503C3B"></path><path d="M966 483H897V528.281C897 534.84 899.314 540.433 903.941 545.059C908.568 549.686 914.16 552 920.719 552H966V483Z" fill="#503C3B"></path><path d="M1035 483H966V552H1035V483Z" fill="#503C3B"></path><path d="M1035 552L1104 517.5L1035 483V552Z" fill="#503C3B"></path><path d="M1242 552L1173 517.5L1242 483V552Z" fill="#503C3B"></path><path d="M1311 483H1242V552H1311V483Z" fill="#503C3B"></path><path d="M1380 483H1311V552H1380V483Z" fill="#503C3B"></path><path d="M1449 483H1380V552H1449V483Z" fill="#503C3B"></path><path d="M1518 483H1449V552H1518V483Z" fill="#503C3B"></path><path d="M1587 506.719C1587 500.16 1584.69 494.567 1580.06 489.941C1575.43 485.314 1569.84 483 1563.28 483H1518V552H1587V506.719Z" fill="#503C3B"></path><path d="M759 621L724.5 552L690 621H759Z" fill="#503C3B"></path><path d="M897 621L862.5 552L828 621H897Z" fill="#503C3B"></path><path d="M1035 552H966V621H1035V552Z" fill="#503C3B"></path><path d="M1173 586.499H1173L1138.5 552L1104 586.499H1104V586.5H1104L1138.5 620.999L1173 586.5H1173H1173L1173 586.499Z" fill="#503C3B"></path><path d="M1311 552H1242V621H1311V552Z" fill="#503C3B"></path><path d="M1449 552H1380V621H1449V552Z" fill="#503C3B"></path><path d="M1518 551.999L1552.5 620.999L1587 551.999H1518Z" fill="#503C3B"></path><path d="M759 621H690V666.281C690 672.84 692.314 678.433 696.941 683.059C701.568 687.686 707.16 690 713.719 690H759V621Z" fill="#503C3B"></path><path d="M828 621H759V690H828V621Z" fill="#503C3B"></path><path d="M897 621H828V690H897V621Z" fill="#503C3B"></path><path d="M966 621H897V690H966V621Z" fill="#503C3B"></path><path d="M1035 621H966V690H1035V621Z" fill="#503C3B"></path><path d="M1242 644.719V621H1196.72C1190.16 621 1184.57 623.314 1179.94 627.941C1175.31 632.568 1173 638.16 1173 644.719V690H1242V644.719Z" fill="#503C3B"></path><path d="M1311 621H1242V690H1311V621Z" fill="#503C3B"></path><path d="M1380 621H1311V690H1380V621Z" fill="#503C3B"></path><path d="M1449 621H1380V690H1449V621Z" fill="#503C3B"></path><path d="M1449 690L1518 655.5L1449 621V690Z" fill="#503C3B"></path><path d="M207 724.499H206.999L172.5 690L138.001 724.499H138V724.5H138.001L172.5 758.999L206.999 724.5H207H206.999L207 724.499Z" fill="#503C3B"></path><path d="M345 713.719V690H299.719C293.16 690 287.567 692.314 282.941 696.941C278.314 701.568 276 707.16 276 713.719V759H345V713.719Z" fill="#503C3B"></path><path d="M345 759L414 724.5L345 690V759Z" fill="#503C3B"></path><path d="M552 713.719V690H506.719C500.16 690 494.567 692.314 489.941 696.941C485.314 701.568 483 707.16 483 713.719V759H552V713.719Z" fill="#503C3B"></path><path d="M621 690H552V759H621V690Z" fill="#503C3B"></path><path d="M690 713.719C690 707.16 687.686 701.567 683.059 696.941C678.433 692.314 672.84 690 666.281 690H621V759H690V713.719Z" fill="#503C3B"></path><path d="M897 690H828V759H897V690Z" fill="#503C3B"></path><path d="M966 690H897V759H966V690Z" fill="#503C3B"></path><path d="M1035 690H966V759H1035V690Z" fill="#503C3B"></path><path d="M1104 713.719C1104 707.16 1101.69 701.567 1097.06 696.941C1092.43 692.314 1086.84 690 1080.28 690H1035V759H1104V713.719Z" fill="#503C3B"></path><path d="M1242 690H1173V759H1242V690Z" fill="#503C3B"></path><path d="M1380 690H1311V735.281C1311 741.84 1313.31 747.433 1317.94 752.059C1322.57 756.686 1328.16 759 1334.72 759H1380V690Z" fill="#503C3B"></path><path d="M1449 690H1380V759H1449V690Z" fill="#503C3B"></path><path d="M1725 759L1690.5 690L1656 759H1725Z" fill="#503C3B"></path><path d="M1932 724.499H1932L1897.5 690L1863 724.499H1863V724.5H1863L1897.5 758.999L1932 724.5H1932H1932L1932 724.499Z" fill="#503C3B"></path><path d="M2070 759L2001 724.5L2070 690V759Z" fill="#503C3B"></path><path d="M2139 713.719C2139 707.16 2136.69 701.567 2132.06 696.941C2127.43 692.314 2121.84 690 2115.28 690H2070V759H2139V713.719Z" fill="#503C3B"></path><path d="M276 828L207 793.5L276 759V828Z" fill="#503C3B"></path><path d="M345 759H276V828H321.281C327.84 828 333.433 825.686 338.059 821.059C342.686 816.433 345 810.84 345 804.281V759Z" fill="#503C3B"></path><path d="M483 828L414 793.5L483 759V828Z" fill="#503C3B"></path><path d="M552 759H483V828H552V759Z" fill="#503C3B"></path><path d="M690 759H621V828H690V759Z" fill="#503C3B"></path><path d="M897 759H828V804.281C828 810.84 830.314 816.433 834.941 821.059C839.568 825.686 845.16 828 851.719 828H897V759Z" fill="#503C3B"></path><path d="M966 759H897V828H942.281C948.84 828 954.433 825.686 959.059 821.059C963.686 816.433 966 810.84 966 804.281V759Z" fill="#503C3B"></path><path d="M1104 759H1035V828H1104V759Z" fill="#503C3B"></path><path d="M1173 759H1104V828H1173V759Z" fill="#503C3B"></path><path d="M1242 759H1173V828H1218.28C1224.84 828 1230.43 825.686 1235.06 821.059C1239.69 816.433 1242 810.84 1242 804.281V759Z" fill="#503C3B"></path><path d="M1449 759H1380V828H1449V759Z" fill="#503C3B"></path><path d="M1449 828L1518 793.5L1449 759V828Z" fill="#503C3B"></path><path d="M1656 782.719V759H1610.72C1604.16 759 1598.57 761.314 1593.94 765.941C1589.31 770.568 1587 776.16 1587 782.719V828H1656V782.719Z" fill="#503C3B"></path><path d="M1725 759H1656V828H1725V759Z" fill="#503C3B"></path><path d="M1794 759H1725V828H1794V759Z" fill="#503C3B"></path><path d="M1794 828L1863 793.5L1794 759V828Z" fill="#503C3B"></path><path d="M2070 758.999L2104.5 827.999L2139 758.999H2070Z" fill="#503C3B"></path><path d="M207 862.499H206.999L172.5 828L138.001 862.499H138V862.5H138.001L172.5 896.999L206.999 862.5H207H206.999L207 862.499Z" fill="#503C3B"></path><path d="M552 828H483V873.281C483 879.84 485.314 885.433 489.941 890.059C494.568 894.686 500.16 897 506.719 897H552V828Z" fill="#503C3B"></path><path d="M621 828H552V897H621V828Z" fill="#503C3B"></path><path d="M690 828H621V897H666.281C672.84 897 678.433 894.686 683.059 890.059C687.686 885.433 690 879.84 690 873.281V828Z" fill="#503C3B"></path><path d="M828 897L793.5 828L759 897H828Z" fill="#503C3B"></path><path d="M1035 851.719V828H989.719C983.16 828 977.567 830.314 972.941 834.941C968.314 839.568 966 845.16 966 851.719V897H1035V851.719Z" fill="#503C3B"></path><path d="M1104 828H1035V897H1080.28C1086.84 897 1092.43 894.686 1097.06 890.059C1101.69 885.433 1104 879.84 1104 873.281V828Z" fill="#503C3B"></path><path d="M1311 851.719V828H1265.72C1259.16 828 1253.57 830.314 1248.94 834.941C1244.31 839.568 1242 845.16 1242 851.719V897H1311V851.719Z" fill="#503C3B"></path><path d="M1380 828H1311V897H1380V828Z" fill="#503C3B"></path><path d="M1449 828H1380V897H1425.28C1431.84 897 1437.43 894.686 1442.06 890.059C1446.69 885.433 1449 879.84 1449 873.281V828Z" fill="#503C3B"></path><path d="M1656 828H1587V897H1656V828Z" fill="#503C3B"></path><path d="M2001 897L1932 862.5L2001 828V897Z" fill="#503C3B"></path><path d="M2001 897L2070 862.5L2001 828V897Z" fill="#503C3B"></path><path d="M345 931.499H344.999L310.5 897L276.001 931.499H276V931.5H276.001L310.5 965.999L344.999 931.5H345H344.999L345 931.499Z" fill="#503C3B"></path><path d="M759 896.999L793.5 965.999L828 896.999H759Z" fill="#503C3B"></path><path d="M1035 897H966V966H1035V897Z" fill="#503C3B"></path><path d="M1242 896.999L1276.5 965.999L1311 896.999H1242Z" fill="#503C3B"></path><path d="M1518 920.719V897H1472.72C1466.16 897 1460.57 899.314 1455.94 903.941C1451.31 908.568 1449 914.16 1449 920.719V966H1518V920.719Z" fill="#503C3B"></path><path d="M1587 897H1518V966H1587V897Z" fill="#503C3B"></path><path d="M1656 897H1587V966H1632.28C1638.84 966 1644.43 963.686 1649.06 959.059C1653.69 954.433 1656 948.84 1656 942.281V897Z" fill="#503C3B"></path><path d="M2139 931.499H2139L2104.5 897L2070 931.499H2070V931.5H2070L2104.5 965.999L2139 931.5H2139H2139L2139 931.499Z" fill="#503C3B"></path><path d="M621 1035L552 1000.5L621 966V1035Z" fill="#503C3B"></path><path d="M621 1035L690 1000.5L621 966V1035Z" fill="#503C3B"></path><path d="M897 989.719V966H851.719C845.16 966 839.567 968.314 834.941 972.941C830.314 977.568 828 983.16 828 989.719V1035H897V989.719Z" fill="#503C3B"></path><path d="M966 966H897V1035H966V966Z" fill="#503C3B"></path><path d="M1035 966H966V1035H1035V966Z" fill="#503C3B"></path><path d="M1173 989.719V966H1127.72C1121.16 966 1115.57 968.314 1110.94 972.941C1106.31 977.568 1104 983.16 1104 989.719V1035H1173V989.719Z" fill="#503C3B"></path><path d="M1173 1035L1242 1000.5L1173 966V1035Z" fill="#503C3B"></path><path d="M1380 1035L1345.5 966L1311 1035H1380Z" fill="#503C3B"></path><path d="M1518 966H1449V1035H1518V966Z" fill="#503C3B"></path><path d="M1932 1035L1863 1000.5L1932 966V1035Z" fill="#503C3B"></path><path d="M2001 989.719C2001 983.16 1998.69 977.567 1994.06 972.941C1989.43 968.314 1983.84 966 1977.28 966H1932V1035H2001V989.719Z" fill="#503C3B"></path><path d="M276 1104L207 1069.5L276 1035V1104Z" fill="#503C3B"></path><path d="M345 1035H276V1104H345V1035Z" fill="#503C3B"></path><path d="M414 1035H345V1104H414V1035Z" fill="#503C3B"></path><path d="M483 1058.72C483 1052.16 480.686 1046.57 476.059 1041.94C471.433 1037.31 465.84 1035 459.281 1035H414V1104H483V1058.72Z" fill="#503C3B"></path><path d="M897 1035H828V1080.28C828 1086.84 830.314 1092.43 834.941 1097.06C839.568 1101.69 845.16 1104 851.719 1104H897V1035Z" fill="#503C3B"></path><path d="M966 1035H897V1104H966V1035Z" fill="#503C3B"></path><path d="M1035 1035H966V1104H1011.28C1017.84 1104 1023.43 1101.69 1028.06 1097.06C1032.69 1092.43 1035 1086.84 1035 1080.28V1035Z" fill="#503C3B"></path><path d="M1104 1035L1138.5 1104L1173 1035H1104Z" fill="#503C3B"></path><path d="M1311 1058.72V1035H1265.72C1259.16 1035 1253.57 1037.31 1248.94 1041.94C1244.31 1046.57 1242 1052.16 1242 1058.72V1104H1311V1058.72Z" fill="#503C3B"></path><path d="M1380 1035H1311V1104H1356.28C1362.84 1104 1368.43 1101.69 1373.06 1097.06C1377.69 1092.43 1380 1086.84 1380 1080.28V1035Z" fill="#503C3B"></path><path d="M1518 1035H1449V1104H1518V1035Z" fill="#503C3B"></path><path d="M1656 1104L1587 1069.5L1656 1035V1104Z" fill="#503C3B"></path><path d="M1725 1058.72C1725 1052.16 1722.69 1046.57 1718.06 1041.94C1713.43 1037.31 1707.84 1035 1701.28 1035H1656V1104H1725V1058.72Z" fill="#503C3B"></path><path d="M2001 1035H1932V1104H2001V1035Z" fill="#503C3B"></path><path d="M2070 1035H2001V1104H2070V1035Z" fill="#503C3B"></path><path d="M2139 1058.72C2139 1052.16 2136.69 1046.57 2132.06 1041.94C2127.43 1037.31 2121.84 1035 2115.28 1035H2070V1104H2139V1058.72Z" fill="#503C3B"></path><path d="M207 1138.5H206.999L172.5 1104L138.001 1138.5H138V1138.5H138.001L172.5 1173L206.999 1138.5H207H206.999L207 1138.5Z" fill="#503C3B"></path><path d="M483 1104H414V1173H483V1104Z" fill="#503C3B"></path><path d="M552 1104H483V1173H552V1104Z" fill="#503C3B"></path><path d="M621 1104H552V1173H621V1104Z" fill="#503C3B"></path><path d="M690 1104H621V1173H690V1104Z" fill="#503C3B"></path><path d="M759 1104H690V1173H759V1104Z" fill="#503C3B"></path><path d="M759 1173L828 1138.5L759 1104V1173Z" fill="#503C3B"></path><path d="M897 1104L931.5 1173L966 1104H897Z" fill="#503C3B"></path><path d="M1104 1138.5H1104L1069.5 1104L1035 1138.5H1035V1138.5H1035L1069.5 1173L1104 1138.5H1104H1104L1104 1138.5Z" fill="#503C3B"></path><path d="M1242 1173L1173 1138.5L1242 1104V1173Z" fill="#503C3B"></path><path d="M1311 1104H1242V1173H1311V1104Z" fill="#503C3B"></path><path d="M1449 1173L1380 1138.5L1449 1104V1173Z" fill="#503C3B"></path><path d="M1518 1104H1449V1173H1518V1104Z" fill="#503C3B"></path><path d="M1587 1127.72C1587 1121.16 1584.69 1115.57 1580.06 1110.94C1575.43 1106.31 1569.84 1104 1563.28 1104H1518V1173H1587V1127.72Z" fill="#503C3B"></path><path d="M1725 1104H1656V1173H1725V1104Z" fill="#503C3B"></path><path d="M2001 1104H1932V1149.28C1932 1155.84 1934.31 1161.43 1938.94 1166.06C1943.57 1170.69 1949.16 1173 1955.72 1173H2001V1104Z" fill="#503C3B"></path><path d="M2070 1104H2001V1173H2070V1104Z" fill="#503C3B"></path><path d="M2139 1104H2070V1173H2115.28C2121.84 1173 2127.43 1170.69 2132.06 1166.06C2136.69 1161.43 2139 1155.84 2139 1149.28V1104Z" fill="#503C3B"></path><path d="M276 1242L241.5 1173L207 1242H276Z" fill="#503C3B"></path><path d="M483 1173H414V1218.28C414 1224.84 416.314 1230.43 420.941 1235.06C425.568 1239.69 431.16 1242 437.719 1242H483V1173Z" fill="#503C3B"></path><path d="M552 1173H483V1242H552V1173Z" fill="#503C3B"></path><path d="M690 1173L724.5 1242L759 1173H690Z" fill="#503C3B"></path><path d="M897 1242L862.5 1173L828 1242H897Z" fill="#503C3B"></path><path d="M1173 1242L1138.5 1173L1104 1242H1173Z" fill="#503C3B"></path><path d="M1311 1173H1242V1242H1311V1173Z" fill="#503C3B"></path><path d="M1518 1173H1449V1242H1518V1173Z" fill="#503C3B"></path><path d="M1587 1173H1518V1242H1587V1173Z" fill="#503C3B"></path><path d="M1656 1173H1587V1242H1656V1173Z" fill="#503C3B"></path><path d="M1725 1173H1656V1242H1725V1173Z" fill="#503C3B"></path><path d="M1794 1173H1725V1242H1794V1173Z" fill="#503C3B"></path><path d="M1863 1196.72C1863 1190.16 1860.69 1184.57 1856.06 1179.94C1851.43 1175.31 1845.84 1173 1839.28 1173H1794V1242H1863V1196.72Z" fill="#503C3B"></path><path d="M2070 1173H2001V1242H2070V1173Z" fill="#503C3B"></path><path d="M207 1311L138 1276.5L207 1242V1311Z" fill="#503C3B"></path><path d="M276 1242H207V1311H252.281C258.84 1311 264.433 1308.69 269.059 1304.06C273.686 1299.43 276 1293.84 276 1287.28V1242Z" fill="#503C3B"></path><path d="M552 1242H483V1311H552V1242Z" fill="#503C3B"></path><path d="M552 1311L621 1276.5L552 1242V1311Z" fill="#503C3B"></path><path d="M897 1242H828V1287.28C828 1293.84 830.314 1299.43 834.941 1304.06C839.568 1308.69 845.16 1311 851.719 1311H897V1242Z" fill="#503C3B"></path><path d="M966 1265.72C966 1259.16 963.686 1253.57 959.059 1248.94C954.433 1244.31 948.84 1242 942.281 1242H897V1311H966V1265.72Z" fill="#503C3B"></path><path d="M1173 1242H1104V1311H1173V1242Z" fill="#503C3B"></path><path d="M1242 1242H1173V1311H1242V1242Z" fill="#503C3B"></path><path d="M1311 1242H1242V1311H1311V1242Z" fill="#503C3B"></path><path d="M1449 1311L1380 1276.5L1449 1242V1311Z" fill="#503C3B"></path><path d="M1518 1242H1449V1311H1518V1242Z" fill="#503C3B"></path><path d="M1587 1242H1518V1311H1587V1242Z" fill="#503C3B"></path><path d="M1656 1242H1587V1311H1632.28C1638.84 1311 1644.43 1308.69 1649.06 1304.06C1653.69 1299.43 1656 1293.84 1656 1287.28V1242Z" fill="#503C3B"></path><path d="M1863 1242H1794V1287.28C1794 1293.84 1796.31 1299.43 1800.94 1304.06C1805.57 1308.69 1811.16 1311 1817.72 1311H1863V1242Z" fill="#503C3B"></path><path d="M1932 1265.72C1932 1259.16 1929.69 1253.57 1925.06 1248.94C1920.43 1244.31 1914.84 1242 1908.28 1242H1863V1311H1932V1265.72Z" fill="#503C3B"></path><path d="M2070 1242H2001V1311H2070V1242Z" fill="#503C3B"></path><path d="M483 1334.72V1311H437.719C431.16 1311 425.567 1313.31 420.941 1317.94C416.314 1322.57 414 1328.16 414 1334.72V1380H483V1334.72Z" fill="#503C3B"></path><path d="M552 1311H483V1380H552V1311Z" fill="#503C3B"></path><path d="M759 1380L724.5 1311L690 1380H759Z" fill="#503C3B"></path><path d="M897 1311L931.5 1380L966 1311H897Z" fill="#503C3B"></path><path d="M1173 1311H1104V1380H1173V1311Z" fill="#503C3B"></path><path d="M1311 1311H1242V1380H1311V1311Z" fill="#503C3B"></path><path d="M1311 1380L1380 1345.5L1311 1311V1380Z" fill="#503C3B"></path><path d="M1587 1311H1518V1380H1587V1311Z" fill="#503C3B"></path><path d="M1794 1380L1759.5 1311L1725 1380H1794Z" fill="#503C3B"></path><path d="M1932 1311H1863V1356.28C1863 1362.84 1865.31 1368.43 1869.94 1373.06C1874.57 1377.69 1880.16 1380 1886.72 1380H1932V1311Z" fill="#503C3B"></path><path d="M2001 1311H1932V1380H2001V1311Z" fill="#503C3B"></path><path d="M2070 1311H2001V1380H2046.28C2052.84 1380 2058.43 1377.69 2063.06 1373.06C2067.69 1368.43 2070 1362.84 2070 1356.28V1311Z" fill="#503C3B"></path><path d="M207 1414.5H206.999L172.5 1380L138.001 1414.5H138V1414.5H138.001L172.5 1449L206.999 1414.5H207H206.999L207 1414.5Z" fill="#503C3B"></path><path d="M414 1449L345 1414.5L414 1380V1449Z" fill="#503C3B"></path><path d="M483 1380H414V1449H483V1380Z" fill="#503C3B"></path><path d="M552 1380H483V1449H552V1380Z" fill="#503C3B"></path><path d="M621 1380H552V1449H621V1380Z" fill="#503C3B"></path><path d="M690 1380H621V1449H690V1380Z" fill="#503C3B"></path><path d="M759 1380H690V1449H735.281C741.84 1449 747.433 1446.69 752.059 1442.06C756.686 1437.43 759 1431.84 759 1425.28V1380Z" fill="#503C3B"></path><path d="M1104 1403.72V1380H1058.72C1052.16 1380 1046.57 1382.31 1041.94 1386.94C1037.31 1391.57 1035 1397.16 1035 1403.72V1449H1104V1403.72Z" fill="#503C3B"></path><path d="M1173 1380H1104V1449H1173V1380Z" fill="#503C3B"></path><path d="M1242 1380H1173V1449H1242V1380Z" fill="#503C3B"></path><path d="M1311 1380H1242V1449H1287.28C1293.84 1449 1299.43 1446.69 1304.06 1442.06C1308.69 1437.43 1311 1431.84 1311 1425.28V1380Z" fill="#503C3B"></path><path d="M1587 1380H1518V1449H1587V1380Z" fill="#503C3B"></path><path d="M1656 1403.72C1656 1397.16 1653.69 1391.57 1649.06 1386.94C1644.43 1382.31 1638.84 1380 1632.28 1380H1587V1449H1656V1403.72Z" fill="#503C3B"></path><path d="M1794 1380H1725V1449H1794V1380Z" fill="#503C3B"></path><path d="M2001 1380H1932V1449H2001V1380Z" fill="#503C3B"></path><path d="M483 1449H414V1518H483V1449Z" fill="#503C3B"></path><path d="M552 1449H483V1518H552V1449Z" fill="#503C3B"></path><path d="M897 1518L862.5 1449L828 1518H897Z" fill="#503C3B"></path><path d="M1104 1449H1035V1518H1104V1449Z" fill="#503C3B"></path><path d="M1173 1449H1104V1518H1173V1449Z" fill="#503C3B"></path><path d="M1380 1518L1345.5 1449L1311 1518H1380Z" fill="#503C3B"></path><path d="M1518 1472.72V1449H1472.72C1466.16 1449 1460.57 1451.31 1455.94 1455.94C1451.31 1460.57 1449 1466.16 1449 1472.72V1518H1518V1472.72Z" fill="#503C3B"></path><path d="M1587 1449H1518V1518H1587V1449Z" fill="#503C3B"></path><path d="M1656 1449H1587V1518H1656V1449Z" fill="#503C3B"></path><path d="M1794 1449H1725V1518H1794V1449Z" fill="#503C3B"></path><path d="M2001 1449H1932V1518H2001V1449Z" fill="#503C3B"></path><path d="M276 1552.5H275.999L241.5 1518L207.001 1552.5H207V1552.5H207.001L241.5 1587L275.999 1552.5H276H275.999L276 1552.5Z" fill="#503C3B"></path><path d="M414 1587L345 1552.5L414 1518V1587Z" fill="#503C3B"></path><path d="M483 1518H414V1587H483V1518Z" fill="#503C3B"></path><path d="M552 1518H483V1587H552V1518Z" fill="#503C3B"></path><path d="M552 1587L621 1552.5L552 1518V1587Z" fill="#503C3B"></path><path d="M897 1518H828V1587H897V1518Z" fill="#503C3B"></path><path d="M966 1518H897V1587H966V1518Z" fill="#503C3B"></path><path d="M1035 1518H966V1587H1035V1518Z" fill="#503C3B"></path><path d="M1104 1518H1035V1587H1104V1518Z" fill="#503C3B"></path><path d="M1173 1518H1104V1587H1149.28C1155.84 1587 1161.43 1584.69 1166.06 1580.06C1170.69 1575.43 1173 1569.84 1173 1563.28V1518Z" fill="#503C3B"></path><path d="M1311 1541.72V1518H1265.72C1259.16 1518 1253.57 1520.31 1248.94 1524.94C1244.31 1529.57 1242 1535.16 1242 1541.72V1587H1311V1541.72Z" fill="#503C3B"></path><path d="M1380 1518H1311V1587H1380V1518Z" fill="#503C3B"></path><path d="M1449 1518H1380V1587H1449V1518Z" fill="#503C3B"></path><path d="M1518 1518H1449V1587H1518V1518Z" fill="#503C3B"></path><path d="M1587 1518H1518V1587H1587V1518Z" fill="#503C3B"></path><path d="M1656 1518H1587V1587H1656V1518Z" fill="#503C3B"></path><path d="M1725 1518H1656V1587H1725V1518Z" fill="#503C3B"></path><path d="M1794 1518H1725V1587H1794V1518Z" fill="#503C3B"></path><path d="M1863 1518H1794V1587H1863V1518Z" fill="#503C3B"></path><path d="M1932 1518H1863V1587H1932V1518Z" fill="#503C3B"></path><path d="M2001 1518H1932V1587H2001V1518Z" fill="#503C3B"></path><path d="M759 1656L724.5 1587L690 1656H759Z" fill="#503C3B"></path><path d="M897 1587H828V1656H897V1587Z" fill="#503C3B"></path><path d="M966 1587L1000.5 1656L1035 1587H966Z" fill="#503C3B"></path><path d="M1242 1610.72V1587H1196.72C1190.16 1587 1184.57 1589.31 1179.94 1593.94C1175.31 1598.57 1173 1604.16 1173 1610.72V1656H1242V1610.72Z" fill="#503C3B"></path><path d="M1311 1587H1242V1656H1287.28C1293.84 1656 1299.43 1653.69 1304.06 1649.06C1308.69 1644.43 1311 1638.84 1311 1632.28V1587Z" fill="#503C3B"></path><path d="M1380 1587L1414.5 1656L1449 1587H1380Z" fill="#503C3B"></path><path d="M1587 1587H1518V1656H1587V1587Z" fill="#503C3B"></path><path d="M1863 1587H1794V1656H1863V1587Z" fill="#503C3B"></path><path d="M1932 1587H1863V1656H1932V1587Z" fill="#503C3B"></path><path d="M2001 1587H1932V1656H2001V1587Z" fill="#503C3B"></path><path d="M2070 1587H2001V1656H2070V1587Z" fill="#503C3B"></path><path d="M2070 1656L2139 1621.5L2070 1587V1656Z" fill="#503C3B"></path><path d="M759 1656H690V1725H759V1656Z" fill="#503C3B"></path><path d="M897 1656H828V1725H897V1656Z" fill="#503C3B"></path><path d="M897 1725L966 1690.5L897 1656V1725Z" fill="#503C3B"></path><path d="M1173 1679.72V1656H1127.72C1121.16 1656 1115.57 1658.31 1110.94 1662.94C1106.31 1667.57 1104 1673.16 1104 1679.72V1725H1173V1679.72Z" fill="#503C3B"></path><path d="M1242 1656H1173V1725H1242V1656Z" fill="#503C3B"></path><path d="M1380 1690.5H1380L1345.5 1656L1311 1690.5H1311V1690.5H1311L1345.5 1725L1380 1690.5H1380H1380L1380 1690.5Z" fill="#503C3B"></path><path d="M1518 1725L1449 1690.5L1518 1656V1725Z" fill="#503C3B"></path><path d="M1587 1656H1518V1725H1587V1656Z" fill="#503C3B"></path><path d="M1725 1690.5H1725L1690.5 1656L1656 1690.5H1656V1690.5H1656L1690.5 1725L1725 1690.5H1725H1725L1725 1690.5Z" fill="#503C3B"></path><path d="M1863 1656H1794V1725H1863V1656Z" fill="#503C3B"></path><path d="M1932 1656H1863V1725H1908.28C1914.84 1725 1920.43 1722.69 1925.06 1718.06C1929.69 1713.43 1932 1707.84 1932 1701.28V1656Z" fill="#503C3B"></path><path d="M2001 1656L2035.5 1725L2070 1656H2001Z" fill="#503C3B"></path><path d="M759 1725H690V1770.28C690 1776.84 692.314 1782.43 696.941 1787.06C701.568 1791.69 707.16 1794 713.719 1794H759V1725Z" fill="#503C3B"></path><path d="M828 1725H759V1794H828V1725Z" fill="#503C3B"></path><path d="M897 1725H828V1794H897V1725Z" fill="#503C3B"></path><path d="M1104 1794L1035 1759.5L1104 1725V1794Z" fill="#503C3B"></path><path d="M1173 1725H1104V1794H1173V1725Z" fill="#503C3B"></path><path d="M1242 1725H1173V1794H1218.28C1224.84 1794 1230.43 1791.69 1235.06 1787.06C1239.69 1782.43 1242 1776.84 1242 1770.28V1725Z" fill="#503C3B"></path><path d="M1449 1759.5H1449L1414.5 1725L1380 1759.5H1380V1759.5H1380L1414.5 1794L1449 1759.5H1449H1449L1449 1759.5Z" fill="#503C3B"></path><path d="M1587 1725H1518V1794H1587V1725Z" fill="#503C3B"></path><path d="M1863 1725H1794V1794H1863V1725Z" fill="#503C3B"></path><path d="M828 1794H759V1839.28C759 1845.84 761.314 1851.43 765.941 1856.06C770.568 1860.69 776.16 1863 782.719 1863H828V1794Z" fill="#503C3B"></path><path d="M897 1794H828V1863H897V1794Z" fill="#503C3B"></path><path d="M1380 1863L1345.5 1794L1311 1863H1380Z" fill="#503C3B"></path><path d="M1587 1794H1518V1839.28C1518 1845.84 1520.31 1851.43 1524.94 1856.06C1529.57 1860.69 1535.16 1863 1541.72 1863H1587V1794Z" fill="#503C3B"></path><path d="M1656 1794H1587V1863H1656V1794Z" fill="#503C3B"></path><path d="M1725 1794H1656V1863H1725V1794Z" fill="#503C3B"></path><path d="M1794 1794H1725V1863H1794V1794Z" fill="#503C3B"></path><path d="M1863 1794H1794V1863H1863V1794Z" fill="#503C3B"></path><path d="M2001 1828.5H2001L1966.5 1794L1932 1828.5H1932V1828.5H1932L1966.5 1863L2001 1828.5H2001H2001L2001 1828.5Z" fill="#503C3B"></path><path d="M2139 1828.5H2139L2104.5 1794L2070 1828.5H2070V1828.5H2070L2104.5 1863L2139 1828.5H2139H2139L2139 1828.5Z" fill="#503C3B"></path><path d="M759 1932L724.5 1863L690 1932H759Z" fill="#503C3B"></path><path d="M828 1863L862.5 1932L897 1863H828Z" fill="#503C3B"></path><path d="M1104 1897.5H1104L1069.5 1863L1035 1897.5H1035V1897.5H1035L1069.5 1932L1104 1897.5H1104H1104L1104 1897.5Z" fill="#503C3B"></path><path d="M1380 1863H1311V1908.28C1311 1914.84 1313.31 1920.43 1317.94 1925.06C1322.57 1929.69 1328.16 1932 1334.72 1932H1380V1863Z" fill="#503C3B"></path><path d="M1380 1932L1449 1897.5L1380 1863V1932Z" fill="#503C3B"></path><path d="M1587 1863L1621.5 1932L1656 1863H1587Z" fill="#503C3B"></path><path d="M1794 1863L1828.5 1932L1863 1863H1794Z" fill="#503C3B"></path><path d="M2070 1897.5H2070L2035.5 1863L2001 1897.5H2001V1897.5H2001L2035.5 1932L2070 1897.5H2070H2070L2070 1897.5Z" fill="#503C3B"></path><path d="M759 1932H690V1977.28C690 1983.84 692.314 1989.43 696.941 1994.06C701.568 1998.69 707.16 2001 713.719 2001H759V1932Z" fill="#503C3B"></path><path d="M828 1955.72C828 1949.16 825.686 1943.57 821.059 1938.94C816.433 1934.31 810.84 1932 804.281 1932H759V2001H828V1955.72Z" fill="#503C3B"></path><path d="M1035 1966.5H1035L1000.5 1932L966.001 1966.5H966V1966.5H966.001L1000.5 2001L1035 1966.5H1035H1035L1035 1966.5Z" fill="#503C3B"></path><path d="M1173 1966.5H1173L1138.5 1932L1104 1966.5H1104V1966.5H1104L1138.5 2001L1173 1966.5H1173H1173L1173 1966.5Z" fill="#503C3B"></path><path d="M1311 1966.5H1311L1276.5 1932L1242 1966.5H1242V1966.5H1242L1276.5 2001L1311 1966.5H1311H1311L1311 1966.5Z" fill="#503C3B"></path><path d="M1587 2001L1552.5 1932L1518 2001H1587Z" fill="#503C3B"></path><path d="M1794 1966.5H1794L1759.5 1932L1725 1966.5H1725V1966.5H1725L1759.5 2001L1794 1966.5H1794H1794L1794 1966.5Z" fill="#503C3B"></path><path d="M2139 1966.5H2139L2104.5 1932L2070 1966.5H2070V1966.5H2070L2104.5 2001L2139 1966.5H2139H2139L2139 1966.5Z" fill="#503C3B"></path><path d="M828 2001H759V2046.28C759 2052.84 761.314 2058.43 765.941 2063.06C770.568 2067.69 776.16 2070 782.719 2070H828V2001Z" fill="#503C3B"></path><path d="M897 2024.72C897 2018.16 894.686 2012.57 890.059 2007.94C885.433 2003.31 879.84 2001 873.281 2001H828V2070H897V2024.72Z" fill="#503C3B"></path><path d="M1104 2035.5H1104L1069.5 2001L1035 2035.5H1035V2035.5H1035L1069.5 2070L1104 2035.5H1104H1104L1104 2035.5Z" fill="#503C3B"></path><path d="M1242 2035.5H1242L1207.5 2001L1173 2035.5H1173V2035.5H1173L1207.5 2070L1242 2035.5H1242H1242L1242 2035.5Z" fill="#503C3B"></path><path d="M1449 2070L1414.5 2001L1380 2070H1449Z" fill="#503C3B"></path><path d="M1587 2001H1518V2070H1587V2001Z" fill="#503C3B"></path><path d="M1725 2035.5H1725L1690.5 2001L1656 2035.5H1656V2035.5H1656L1690.5 2070L1725 2035.5H1725H1725L1725 2035.5Z" fill="#503C3B"></path><path d="M1932 2035.5H1932L1897.5 2001L1863 2035.5H1863V2035.5H1863L1897.5 2070L1932 2035.5H1932H1932L1932 2035.5Z" fill="#503C3B"></path><path d="M2070 2070L2035.5 2001L2001 2070H2070Z" fill="#503C3B"></path><path d="M759 2104.5H758.999L724.5 2070L690.001 2104.5H690V2104.5H690.001L724.5 2139L758.999 2104.5H759H758.999L759 2104.5Z" fill="#503C3B"></path><path d="M897 2070H828V2115.28C828 2121.84 830.314 2127.43 834.941 2132.06C839.568 2136.69 845.16 2139 851.719 2139H897V2070Z" fill="#503C3B"></path><path d="M897 2139L966 2104.5L897 2070V2139Z" fill="#503C3B"></path><path d="M1311 2104.5H1311L1276.5 2070L1242 2104.5H1242V2104.5H1242L1276.5 2139L1311 2104.5H1311H1311L1311 2104.5Z" fill="#503C3B"></path><path d="M1380 2070L1414.5 2139L1449 2070H1380Z" fill="#503C3B"></path><path d="M1587 2070H1518V2115.28C1518 2121.84 1520.31 2127.43 1524.94 2132.06C1529.57 2136.69 1535.16 2139 1541.72 2139H1587V2070Z" fill="#503C3B"></path><path d="M1587 2139L1656 2104.5L1587 2070V2139Z" fill="#503C3B"></path><path d="M1863 2104.5H1863L1828.5 2070L1794 2104.5H1794V2104.5H1794L1828.5 2139L1863 2104.5H1863H1863L1863 2104.5Z" fill="#503C3B"></path><path d="M2001 2070L2035.5 2139L2070 2070H2001Z" fill="#503C3B"></path><path d="M548.55 138H210.45H138V210.45V548.55V621H210.45H548.55H621V548.55V210.45V138H548.55ZM548.55 548.55H210.45V210.45H548.55V548.55Z" fill="#503C3B"></path><path d="M2066.55 138H1728.45H1656V210.45V548.55V621H1728.45H2066.55H2139V548.55V210.45V138H2066.55ZM2066.55 548.55H1728.45V210.45H2066.55V548.55Z" fill="#503C3B"></path><path d="M548.55 1656H210.45H138V1728.45V2066.55V2139H210.45H548.55H621V2066.55V1728.45V1656H548.55ZM548.55 2066.55H210.45V1728.45H548.55V2066.55Z" fill="#503C3B"></path><path d="M483 276H276V483H483V276Z" fill="#503C3B"></path><path d="M2001 276H1794V483H2001V276Z" fill="#503C3B"></path><path d="M483 1794H276V2001H483V1794Z" fill="#503C3B"></path></g><defs><clipPath id="clip0_766_5833"><rect width="2277" height="2277" fill="white"></rect></clipPath></defs></svg>